<?xml version="1.0" encoding="utf-8"?>
<!-- Generator: Adobe Illustrator 25.4.1, SVG Export Plug-In . SVG Version: 6.00 Build 0)  -->
<svg version="1.1" id="Layer_1" xmlns="http://www.w3.org/2000/svg" xmlns:xlink="http://www.w3.org/1999/xlink" x="0px" y="0px"
	 viewBox="0 0 2200 1753.9" style="enable-background:new 0 0 2200 1753.9;" xml:space="preserve">
<style type="text/css">
	.st0{fill:#8DD2F0;}
	.st1{display:none;}
	.st2{display:inline;fill:#ECEFC0;}
	.st3{display:inline;fill:#D6E9D2;}
	.st4{display:inline;fill:#E1C0DC;}
	.st5{display:inline;fill:none;stroke:#000000;stroke-width:15;}
	.st6{display:inline;stroke:#000000;stroke-width:15;}
	.st7{display:inline;fill:none;stroke:#000000;stroke-width:10;}
	.st8{display:inline;}
	.st9{display:inline;fill:none;stroke:#000000;stroke-width:14;}
	.st10{display:inline;fill:none;stroke:#000000;stroke-width:2;}
	.st11{display:inline;fill:none;stroke:#000000;stroke-width:15;stroke-linecap:square;}
	.st12{display:inline;fill:none;stroke:#000000;stroke-width:7;}
</style>
<g id="Layer_2_00000031184415483623520230000004381214629568523958_">
	<polyline class="st0" points="57.5,99.1 532.8,99.1 536.3,262 548.5,267.5 547.6,909.5 55.7,905.8 	"/>
</g>
<g id="Layer_3" class="st1">
	<polyline class="st2" points="685.8,163.3 685.8,906.6 1500.2,906.6 1500.1,161.1 1338.9,118.4 1210.9,97.1 1206,51 980,53.1 
		979.8,90.9 972.9,99.9 807.8,127.4 	"/>
</g>
<g id="Layer_6" class="st1">
	<polyline class="st3" points="1653.1,97 2128.4,97 2128.4,907.1 1637.5,907.1 1636.1,262 1657.1,258.3 	"/>
</g>
<g id="Layer_5" class="st1">
	<circle class="st4" cx="372.8" cy="1233.3" r="235"/>
</g>
<g id="svg2" xmlns:cc="http://creativecommons.org/ns#" xmlns:dc="http://purl.org/dc/elements/1.1/" xmlns:rdf="http://www.w3.org/1999/02/22-rdf-syntax-ns#" xmlns:svg="http://www.w3.org/2000/svg" class="st1">
	<g id="layer1" transform="translate(-27.1863,661.34891)">
	</g>
	<path id="path3005" class="st5" d="M1144.9,95.4c143.4-2.2,248.3,32.2,355.2,65.7v102l153-1.5V97h475.3v810.1h-309.6h-149h-32.3
		l1.2-249.8 M1500.2,388.4v518.2H685.8V390.5"/>
	<path id="path4026_00000166662151497145410930000017720898189205223596_" class="st5" d="M1637.3,268.6v227.7"/>
	<path id="path4045" class="st6" d="M1660.7,765h-30.4"/>
	<path id="path4061" class="st7" d="M1658.8,765h177.6"/>
	<path id="path3005-0_00000062178476365231175620000006722333397933790646_" class="st5" d="M1041,97.6
		c-143.4-2.2-248.3,32.2-355.2,65.7v102l-153-1.5V99.1H57.5v810.1h309.6h149h32.3V752.5"/>
	<path id="path3828-8-5-3_00000003810144263207443450000017770332996516125074_" class="st8" d="M370.1,744.7"/>
	<path id="path4026-8_00000036971356483692115870000003403377021340755859_" class="st5" d="M548.7,438.9v156.6"/>
	<path id="path4769" class="st9" d="M1206,96.7V51l-226,2.1v45.7"/>
	<path id="path6196" class="st10" d="M285.4,908.8v98.9C195,1043,131,1130.9,131,1233.7c0,49.8,15,96.1,40.7,134.6 M239.1,1435.6
		c38.5,25.7,84.7,40.7,134.5,40.7c102.9,0,190.7-64,226-154.4h108.5"/>
	<path id="path4905" class="st10" d="M180.8,1359c-23.5-36-37.1-79.1-37.1-125.3c0-104.5,69.7-192.7,165.2-220.7 M594.1,1298.9
		c-28.1,95.2-116.2,164.8-220.5,164.8c-45.5,0-88-13.2-123.7-36.1"/>
	<path id="path6094" class="st9" d="M708.1,1459l-113.5-1.7c-127.4,128.7-311.2,100.5-395.2,38.1l-42.7,42.7
		c-34.2-24.1-61.4-51.7-87.3-87.3l42.7-42.7C37,1301.5,34.2,1132.7,150,1012.7l0.1-103.5"/>
	<path id="path6126" class="st6" d="M244,1430.5c11.5,7.2,22,13.2,32.8,18.1 M545,1395.3c17.7-18.7,32.3-40.4,43.1-64.1
		c2.1-4.6,4-9.2,5.8-14c4.1-10.7,7.4-21.8,9.9-33.2 M604.1,1184.8c-5.8-27.4-16.3-53-30.7-75.9"/>
	<path id="path6128" class="st10" d="M248.1,1426.4l-65.1,65.1l10.2,10.2"/>
	<path id="path6130" class="st10" d="M180.9,1359.2l-65.1,65.1l-10-10"/>
	<path id="path6126-6" class="st5" d="M176.8,1363.3c-7.2-11.5-13.2-22-18.1-32.8 M212,1062.3c18.7-17.7,40.4-32.3,64.1-43.1
		c4.6-2.1,9.2-4,14-5.8c10.7-4.1,21.8-7.4,33.2-9.9 M422.5,1003.2c27.4,5.8,53,16.3,75.9,30.7"/>
	<path id="path6224" class="st8" d="M700.6,1064.5v505.8l523.7,0.1l-0.2-15.6l-508.5,0.5v-490.8H700.6z"/>
	<path id="path6669" class="st5" d="M1503.4,1211.2V1068H1182v18.2h-29"/>
	<path id="path6673_00000076577139017949051540000007511201894350173355_" class="st11" d="M990.9,1086.2h29"/>
	<path id="path6673-5_00000019655287755636702270000002863900669157586328_" class="st11" d="M887.7,1086.2l-179.7,0.2"/>
	<path id="path6749" class="st8" d="M1651.8,1220.4v334.8l-69.6-0.1l-0.1,15.4c53.2,0,31.4-0.3,84.6-0.3c0-116.6,0-233.2,0-349.8
		L1651.8,1220.4z"/>
	<path id="path6776" class="st10" d="M1023.8,1092.6h132v-13h-131.6"/>
	<path id="path6835-7" class="st7" d="M2073.9,1021.1l0.1,460.5h-418"/>
	<path id="path7001" class="st12" d="M2073.9,1024.6h-261l0.7,52.1H2076"/>
	<path id="path7020" class="st10" d="M2077.9,1021.1v-114"/>
	<path id="path4061_00000137824918726683853190000006394335343257148340_" class="st7" d="M1949.2,764.9h183.6"/>
	<circle class="st8" cx="1747.3" cy="804.7" r="7"/>
	<path class="st8" d="M1746.4,856.1v24.4c0,4.4-6.6,4.4-6.7,0v-24.4h-8.6l9.3-32.5h-1.5l-5.4,18.5c-1.4,4.1-6.9,2.4-5.6-1.9l6-20
		c0.7-2.3,3.6-6.4,8.6-6.5h4.5h5.2c4.9,0.1,7.8,4.2,8.6,6.5l6,20c1.2,4.4-4.3,6.1-5.6,1.9l-5.4-18.5h-1.7l9.5,32.5h-8.8v24.4
		c0.1,4.4-6.5,4.4-6.5,0v-24.4H1746.4z"/>
	<circle class="st8" cx="2035.8" cy="802.7" r="7"/>
	<path class="st8" d="M2028.4,811.6c-5.4,0-8.8,4.7-8.8,9.3v21.6c0,4.2,6,4.2,6,0v-19.8h1.5v54.7c-0.1,5.7,8,5.6,8,0v-31.9h1.3v31.9
		c0.1,5.6,8.2,5.7,8.2,0v-54.7h1.5v19.8c-0.1,4.2,6,4.2,6,0v-21.6c-0.1-4.6-3.7-9.2-9.1-9.3H2028.4z"/>
	<path id="path6224_00000152954699960479811610000012648927034504788138_" class="st8" d="M705,1255l230.3,0.1l-0.1-15.6L705,1240"
		/>
	<path id="path6224_00000119816104577336904700000009942235041432363188_" class="st8" d="M1073,1563.1l0.1-186.7l-15.6,0.1
		l0.5,186.6"/>
	<path id="path6224_00000121993681046764362340000016155928681135222195_" class="st8" d="M925.1,1250.4l136.8,136.9l11-11.1
		l-137.2-136.4"/>
	<path id="path1312" class="st8" d="M1878.4,1323.5l18-0.1c0,0,0.1-18.3,0.2-18.5l18.2-0.4l0.2-18.8c0,0,18.1-0.2,18.4-0.4
		c0.2-0.2,0.4-18.3,0.7-18.4l18.2-0.1v-18.5h27.6c0,0,0,9.5-0.4,9.6l-17.9,0.1l-0.1,18.4l-18.3,0.2l-0.2,18.5l-18.3,0.2l-0.2,18.5
		l-18.5,0.2l-0.1,18.9h-27.8C1877.9,1333.1,1877.9,1323.6,1878.4,1323.5z"/>
	<g id="layer1_00000050637781115842064780000008867418057498053562_" transform="translate(-61.214337,-15.767909)" class="st8">
		<g id="g841">
			<g id="layer1-8" transform="matrix(0.26458333,0,0,0.26458333,-81.713247,84.928812)">
				<g id="g5653" transform="matrix(4.6848915,0,0,4.6848915,-1145.8937,-2197.6612)">
					<path id="path3495" d="M2010,1206.4l-1.1-2.9c-0.5-1.2-1.6-2-2.9-2h-0.5v-25.1h-23.8v13.9h3.1l3.6-4.5c0.7-0.8,1.8-1.4,3-1.4
						h7.6c1.2,0,2.3,0.7,2.8,1.7l2.3,4.3c0.1,0.2,0.2,0.4,0.2,0.7c0,0.8-0.7,1.4-1.4,1.4c-0.6,0-1-0.3-1.3-0.8l-2-3.9h-3.3l2.5,6.3
						l0.8,8.1h6.5c1,0,1.9,0.7,2.3,1.5l0.7,1.9h-11.2c-0.8,0-1.5-0.6-1.6-1.4l-0.8-7.1l-6,12.5c-0.3,0.7-1.1,1.2-2,1.2h-2.9
						l7.4-15.3l-2.3-5.8l-2.2,2.7c-0.5,0.7-1.5,1.2-2.5,1.2h-3.2v18.1l5.1,5.1h-15.2V1173h43.9v43.9h-4.9l-5.1-5.1v-5.4H2010"/>
					<path id="path3499" d="M1990.8,1212.9l3.9,3.9h-4.8l-5.1-5.1h3.1C1989,1211.8,1990,1212.2,1990.8,1212.9z"/>
				</g>
			</g>
			<circle id="path831" cx="2081" cy="967.5" r="3.9"/>
		</g>
	</g>
</g>
</svg>
