<?xml version="1.0" encoding="utf-8"?>
<!-- Generator: Adobe Illustrator 25.4.1, SVG Export Plug-In . SVG Version: 6.00 Build 0)  -->
<svg version="1.1" id="Layer_1" xmlns="http://www.w3.org/2000/svg" xmlns:xlink="http://www.w3.org/1999/xlink" x="0px" y="0px"
	 viewBox="0 0 2200 1753.9" style="enable-background:new 0 0 2200 1753.9;" xml:space="preserve">
<style type="text/css">
	.st0{fill:#ECEFC0;}
	.st1{fill:#D6E9D2;}
	.st2{fill:#8DD2F0;}
	.st3{fill:#E1C0DC;stroke:#FFFFFF;stroke-width:15;}
	.st4{fill:#E1C0DC;}
	.st5{display:none;}
	.st6{fill:none;stroke:#000000;stroke-width:15;}
	.st7{fill:none;stroke:#000000;stroke-width:15;stroke-linecap:square;}
	.st8{fill:none;stroke:#000000;stroke-width:10;}
	.st9{fill:none;stroke:#000000;stroke-width:7;}
	.st10{fill:none;stroke:#000000;stroke-width:2;}
	.st11{fill:none;stroke:#000000;stroke-width:14;}
	.st12{font-family:'TrebuchetMS-Bold';}
	.st13{font-size:60px;}
	.st14{fill:none;}
</style>
<g id="Layer_2_00000090258256377852591690000010126762561088985276_">
	<polygon class="st0" points="1494,267 1493.5,907.1 2124.5,907.1 2124.5,97 1651.3,101.9 1649.2,261.6 	"/>
	<path class="st1" d="M1494,267"/>
	<polygon class="st1" points="51,96.4 54.9,910 545.8,910 548.8,266.6 529.7,260.1 530.4,102.1 	"/>
</g>
<polyline class="st2" points="708.3,1071.9 1502.6,1069.1 1504,1375 1656.7,1375.9 1659.4,1567.6 710.1,1569.5 "/>
<g id="Layer_3">
	<path class="st3" d="M1401.7,346.3"/>
	<polyline class="st4" points="1496.2,267.3 1498.7,905.1 546.7,906.8 547.5,262.9 	"/>
</g>
<g id="svg2" xmlns:cc="http://creativecommons.org/ns#" xmlns:dc="http://purl.org/dc/elements/1.1/" xmlns:rdf="http://www.w3.org/1999/02/22-rdf-syntax-ns#" xmlns:svg="http://www.w3.org/2000/svg">
	<g id="layer1" transform="translate(-27.1863,661.34891)" class="st5">
	</g>
	<path id="path3005_00000016770540049315646700000006969373768410328239_" class="st6" d="M1500.2,263.1l153-1.5V97h475.3v810.1
		h-309.6h-289.1h-32.3v-22.7"/>
	<path id="path4026_00000167354348997308997720000011467721894658789278_" class="st6" d="M1497.2,436.7v285.7"/>
	<path id="path3005-0_00000065040981983533706840000007223360542728651952_" class="st6" d="M1500.2,263.1l-967.4,0.7V99.1H57.5
		v810.1h309.6h149h32.3V752.5"/>
	<path id="path4026-8_00000131351469779192140870000012580768965941445816_" class="st6" d="M548.7,438.9v156.6"/>
	<path id="path6224" d="M700.6,1064.5v505.8l806.5,0.2l-7.2-15.4l-784.3,0.2v-490.8H700.6z"/>
	<path id="path6669_00000128445145603829023220000006751810504497445567_" class="st6" d="M1503.4,1211.2V1068h-163.3"/>
	<path id="path6673-5_00000127727791066494186680000017126353072114189718_" class="st7" d="M1150.9,1071.9l-442.9,0.2"/>
	<path id="path6749" d="M1651.8,1220.4v334.8l-151.9-0.1l7.2,15.4c53.2,0,106.5-0.3,159.7-0.3c0-116.6,0-233.2,0-349.8
		L1651.8,1220.4z"/>
	<path id="path6835-7" class="st8" d="M2073.9,1021.1l0.1,460.5h-418"/>
	<path id="path7001" class="st9" d="M2073.9,1024.6h-261l0.7,52.1H2076"/>
	<path id="path7020" class="st10" d="M2077.9,1021.1v-114"/>
	<path class="st10" d="M551.9,912.3"/>
	<path id="path6094_00000048495951021089067710000014001994867628869299_" class="st11" d="M149.4,1464.9l0.1-555.9"/>
	<path id="path6094_00000011718339030228675100000002912219605644693433_" class="st11" d="M707.6,1458.8l-558.4-0.8"/>
	<circle cx="1531.3" cy="1434.1" r="7.9"/>
	<path d="M1530.2,1492.1v27.5c0,5-7.5,5-7.5,0v-27.5h-9.7l10.5-36.8h-1.7l-6.1,20.9c-1.5,4.6-7.8,2.8-6.3-2.2l6.8-22.6
		c0.8-2.6,4.1-7.2,9.7-7.3h5.1h5.8c5.5,0.1,8.8,4.7,9.7,7.3l6.8,22.6c1.4,4.9-4.8,6.9-6.3,2.2l-6.1-20.9h-1.9l10.7,36.8h-10v27.5
		c0.1,5-7.3,5-7.3,0v-27.5H1530.2z"/>
	<circle cx="1596.1" cy="1434.1" r="7.9"/>
	<path d="M1587.7,1444.2c-6.1,0-10,5.3-10,10.5v24.4c-0.1,4.8,6.8,4.8,6.8,0v-22.4h1.7v61.9c-0.1,6.5,9,6.3,9,0v-36h1.5v36
		c0.1,6.3,9.3,6.5,9.3,0v-61.9h1.7v22.4c-0.1,4.8,6.7,4.8,6.8,0v-24.4c-0.1-5.2-4.1-10.4-10.2-10.5H1587.7z"/>
	<rect x="1559.7" y="1427.1" width="9" height="95.7"/>
	<path id="path1312" d="M1884.3,1315.8l18-0.1c0,0,0.1-18.3,0.2-18.5l18.2-0.4l0.2-18.8c0,0,18.1-0.2,18.4-0.4
		c0.2-0.2,0.4-18.3,0.7-18.4l18.2-0.1v-18.5h27.6c0,0,0,9.5-0.4,9.6l-17.9,0.1l-0.1,18.4l-18.3,0.2l-0.2,18.5l-18.3,0.2l-0.2,18.5
		l-18.5,0.2l-0.1,18.9H1884C1883.8,1325.4,1883.8,1316,1884.3,1315.8z"/>
	<path id="path3005-0_00000071555433722844900180000011821781267762651280_" class="st6" d="M577.1,1070.3h-28.7V904.6"/>
	<path class="st10" d="M551.9,1073.4"/>
	<g id="layer1_00000050637781115842064780000008867418057498053562_" transform="translate(-61.214337,-15.767909)">
		<g id="g841">
			<g id="layer1-8" transform="matrix(0.26458333,0,0,0.26458333,-81.713247,84.928812)">
				<g id="g5653" transform="matrix(4.6848915,0,0,4.6848915,-1145.8937,-2197.6612)">
					<path id="path3495" d="M2008.7,1205.9l-1.1-2.9c-0.5-1.2-1.6-2-2.9-2h-0.5v-25.1h-23.8v13.9h3.1l3.6-4.5c0.7-0.8,1.8-1.4,3-1.4
						h7.6c1.2,0,2.3,0.7,2.8,1.7l2.3,4.3c0.1,0.2,0.2,0.4,0.2,0.7c0,0.8-0.7,1.4-1.4,1.4c-0.6,0-1-0.3-1.3-0.8l-2-3.9h-3.3l2.5,6.3
						l0.8,8.1h6.5c1,0,1.9,0.7,2.3,1.5l0.7,1.9h-11.2c-0.8,0-1.5-0.6-1.6-1.4l-0.8-7.1l-6,12.5c-0.3,0.7-1.1,1.2-2,1.2h-2.9
						l7.4-15.3l-2.3-5.8l-2.2,2.7c-0.5,0.7-1.5,1.2-2.5,1.2h-3.2v18.1l5.1,5.1h-15.2v-43.9h43.9v43.9h-4.9l-5.1-5.1v-5.4h4.4"/>
					<path id="path3499" d="M1989.5,1212.4l3.9,3.9h-4.8l-5.1-5.1h3.1C1987.7,1211.2,1988.8,1211.7,1989.5,1212.4z"/>
				</g>
			</g>
			<circle id="path831" cx="2079.5" cy="966.9" r="3.9"/>
		</g>
	</g>
	<path id="path6669_00000145741008126822096500000000285739675280108189_" class="st6" d="M1653.2,1370.4h-238.3"/>
	<path id="path6669_00000115496351198992283000000015649822195156554124_" class="st6" d="M979.2,1557.5v-479.9"/>
</g>
<path id="path4026_00000156559796388382008620000009125119533434665344_" class="st6" d="M1224.7,907.2h279.7"/>
<path id="path4026_00000018211725918323838540000008204554360668130467_" class="st6" d="M535.7,909.3h294.9"/>
<text transform="matrix(1 0 0 1 178.6244 499.5221)" class="st12 st13">SALLE D</text>
<text transform="matrix(1 0 0 1 914.6354 598.7968)" class="st12 st13">SALLE E</text>
<rect x="1183" y="451.8" class="st14" width="5.5" height="0"/>
<text transform="matrix(1 0 0 1 1724.1017 508.6992)" class="st12 st13">SALLE F</text>
<text transform="matrix(1 0 0 1 1149.0189 1273.6367)" class="st12 st13">BISTRO</text>
</svg>
