<svg id="Layer_1" data-name="Layer 1" xmlns="http://www.w3.org/2000/svg" viewBox="0 0 2085.9 1526.57">
  <defs>
    <style>.cls-1{fill:#8dd2f0;}.cls-2{fill:#ecefc0;}.cls-3{fill:#d6e9d2;}.cls-4{fill:#e1c0dc;}.cls-10,.cls-11,.cls-5,.cls-7,.cls-8,.cls-9{fill:none;}.cls-10,.cls-11,.cls-5,.cls-6,.cls-7,.cls-8,.cls-9{stroke:#000;}.cls-10,.cls-5,.cls-6{stroke-width:15px;}.cls-7{stroke-width:10px;}.cls-8{stroke-width:14px;}.cls-9{stroke-width:2px;}.cls-10{stroke-linecap:square;}.cls-11{stroke-width:7px;}
    </style>
  </defs>
  <g id="Layer_2" data-name="Layer 2">
    <polyline class="cls-1" points="7.5 55.16 482.8 55.16 486.3 218.06 498.5 223.56 497.6 865.57 5.7 861.87"/>
  </g>
  <g id="Layer_3" data-name="Layer 3">
    <polyline class="cls-2" points="635.8 119.36 635.8 862.66 1450.2 862.66 1450.1 117.17 1288.9 74.47 1160.9 53.16 1156 7.07 930 9.16 929.8 46.97 922.9 55.97 757.8 83.47"/>
  </g>
  <g id="Layer_6" data-name="Layer 6">
    <polyline class="cls-3" points="1603.1 53.06 2078.4 53.06 2078.4 863.16 1587.5 863.16 1586.1 218.06 1607.1 214.37"/>
</g><g id="Layer_5" data-name="Layer 5"><circle class="cls-4" cx="322.8" cy="1189.37" r="235"/></g><g id="svg2"><path id="path3005" class="cls-5" d="M1144.9,95.4c143.4-2.2,248.3,32.2,355.2,65.7v102l153-1.5V97h475.3V907.1H1637.5l1.2-249.8M1500.2,388.4V906.6H685.8V390.5" transform="translate(-50 -43.93)"/><path id="path4026" class="cls-5" d="M1637.3,268.6V496.3" transform="translate(-50 -43.93)"/><path id="path4045" class="cls-6" d="M1660.7,765h-30.4" transform="translate(-50 -43.93)"/><path id="path4061" class="cls-7" d="M1658.8,765h177.6" transform="translate(-50 -43.93)"/><path id="path3005-0" class="cls-5" d="M1041,97.6c-143.4-2.2-248.3,32.2-355.2,65.7v102l-153-1.5V99.1H57.5V909.2H548.4V752.5" transform="translate(-50 -43.93)"/><path id="path3828-8-5-3" d="M370.1,744.7" transform="translate(-50 -43.93)"/><path id="path4026-8" class="cls-5" d="M548.7,438.9V595.5" transform="translate(-50 -43.93)"/><path id="path4769" class="cls-8" d="M1206,96.7V51L980,53.1V98.8" transform="translate(-50 -43.93)"/><path id="path6196" class="cls-9" d="M285.4,908.8v98.9C195,1043,131,1130.9,131,1233.7a241.65,241.65,0,0,0,40.7,134.6m67.4,67.3a241.32,241.32,0,0,0,134.5,40.7c102.9,0,190.7-64,226-154.4H708.1" transform="translate(-50 -43.93)"/><path id="path4905" class="cls-9" d="M180.8,1359a228.55,228.55,0,0,1-37.1-125.3c0-104.5,69.7-192.7,165.2-220.7m285.2,285.9c-28.1,95.2-116.2,164.8-220.5,164.8a228.4,228.4,0,0,1-123.7-36.1" transform="translate(-50 -43.93)"/><path id="path6094" class="cls-8" d="M708.1,1459l-113.5-1.7c-127.4,128.7-311.2,100.5-395.2,38.1l-42.7,42.7c-34.2-24.1-61.4-51.7-87.3-87.3l42.7-42.7C37,1301.5,34.2,1132.7,150,1012.7l.1-103.5" transform="translate(-50 -43.93)"/><path id="path6126" class="cls-6" d="M244,1430.5a279.19,279.19,0,0,0,32.8,18.1M545,1395.3a235.14,235.14,0,0,0,43.1-64.1c2.1-4.6,4-9.2,5.8-14a231.14,231.14,0,0,0,9.9-33.2m.3-99.2a233.1,233.1,0,0,0-30.7-75.9" transform="translate(-50 -43.93)"/><path id="path6128" class="cls-9" d="M248.1,1426.4,183,1491.5l10.2,10.2" transform="translate(-50 -43.93)"/><path id="path6130" class="cls-9" d="M180.9,1359.2l-65.1,65.1-10-10" transform="translate(-50 -43.93)"/><path id="path6126-6" class="cls-5" d="M176.8,1363.3a279.19,279.19,0,0,1-18.1-32.8M212,1062.3a235.14,235.14,0,0,1,64.1-43.1c4.6-2.1,9.2-4,14-5.8a231.14,231.14,0,0,1,33.2-9.9m99.2-.3a233.1,233.1,0,0,1,75.9,30.7" transform="translate(-50 -43.93)"/><path id="path6224" d="M700.6,1064.5v505.8l523.7.1-.2-15.6-508.5.5V1064.5Z" transform="translate(-50 -43.93)"/><path id="path6669" class="cls-5" d="M1503.4,1211.2V1068H1182v18.2h-29" transform="translate(-50 -43.93)"/><path id="path6673" class="cls-10" d="M990.9,1086.2h29" transform="translate(-50 -43.93)"/><path id="path6673-5" class="cls-10" d="M887.7,1086.2l-179.7.2" transform="translate(-50 -43.93)"/><path id="path6749" d="M1651.8,1220.4v334.8l-69.6-.1-.1,15.4c53.2,0,31.4-.3,84.6-.3V1220.4Z" transform="translate(-50 -43.93)"/><path id="path6776" class="cls-9" d="M1023.8,1092.6h132v-13H1024.2" transform="translate(-50 -43.93)"/><path id="path6835-7" class="cls-7" d="M2073.9,1021.1l.1,460.5H1656" transform="translate(-50 -43.93)"/><path id="path7001" class="cls-11" d="M2073.9,1024.6h-261l.7,52.1H2076" transform="translate(-50 -43.93)"/><path id="path7020" class="cls-9" d="M2077.9,1021.1v-114" transform="translate(-50 -43.93)"/><path id="path4061-2" data-name="path4061" class="cls-7" d="M1949.2,764.9h183.6" transform="translate(-50 -43.93)"/><circle cx="1697.3" cy="760.77" r="7"/><path d="M1746.4,856.1v24.4c0,4.4-6.6,4.4-6.7,0V856.1h-8.6l9.3-32.5h-1.5l-5.4,18.5c-1.4,4.1-6.9,2.4-5.6-1.9l6-20a9.57,9.57,0,0,1,8.6-6.5h9.7c4.9.1,7.8,4.2,8.6,6.5l6,20c1.2,4.4-4.3,6.1-5.6,1.9l-5.4-18.5h-1.7l9.5,32.5h-8.8v24.4c.1,4.4-6.5,4.4-6.5,0V856.1Z" transform="translate(-50 -43.93)"/><circle cx="1985.8" cy="758.77" r="7"/><path d="M2028.4,811.6c-5.4,0-8.8,4.7-8.8,9.3v21.6a3,3,0,1,0,6,0V822.7h1.5v54.7c-.1,5.7,8,5.6,8,0V845.5h1.3v31.9c.1,5.6,8.2,5.7,8.2,0V822.7h1.5v19.8a3,3,0,1,0,6,0V820.9a9.43,9.43,0,0,0-9.1-9.3Z" transform="translate(-50 -43.93)"/><path id="path6224-2" data-name="path6224" d="M705,1255l230.3.1-.1-15.6L705,1240" transform="translate(-50 -43.93)"/><path id="path6224-3" data-name="path6224" d="M1073,1563.1l.1-186.7-15.6.1.5,186.6" transform="translate(-50 -43.93)"/><path id="path6224-4" data-name="path6224" d="M925.1,1250.4l136.8,136.9,11-11.1L935.7,1239.8" transform="translate(-50 -43.93)"/><path id="path1312" d="M1878.4,1323.5l18-.1s.1-18.3.2-18.5l18.2-.4.2-18.8s18.1-.2,18.4-.4.4-18.3.7-18.4l18.2-.1v-18.5h27.6s0,9.5-.4,9.6l-17.9.1-.1,18.4-18.3.2-.2,18.5-18.3.2-.2,18.5-18.5.2-.1,18.9h-27.8C1877.9,1333.1,1877.9,1323.6,1878.4,1323.5Z" transform="translate(-50 -43.93)"/><g id="layer1"><g id="g841"><g id="layer1-8"><g id="g5653"><path id="path3495" d="M2045.37,983.08l-1.36-3.59a3.89,3.89,0,0,0-3.6-2.48h-.62V945.9h-29.5v17.23h3.85l4.46-5.58a5.06,5.06,0,0,1,3.72-1.74h9.42a3.93,3.93,0,0,1,3.47,2.11l2.85,5.33a1.86,1.86,0,0,1,.25.87,1.76,1.76,0,0,1-3.35.74l-2.48-4.83h-4.09l3.1,7.81,1,10h8.06a3.34,3.34,0,0,1,2.85,1.86l.87,2.35h-13.89a2,2,0,0,1-2-1.73l-1-8.81-7.44,15.5a2.67,2.67,0,0,1-2.48,1.49h-3.59l9.17-19-2.85-7.19-2.73,3.35a3.94,3.94,0,0,1-3.1,1.49h-4v22.43l6.32,6.32H1997.9V941.68h54.41V996.1h-6.07l-6.32-6.32v-6.7h5.45" transform="translate(-50 -43.93)"/><path id="path3499" d="M2021.57,991.14l4.84,4.83h-6l-6.32-6.32H2018A6.26,6.26,0,0,1,2021.57,991.14Z" transform="translate(-50 -43.93)"/></g></g><circle id="path831" cx="1969.79" cy="907.8" r="3.9"/></g></g></g></svg>
